<svg width="30" height="30" viewBox="0 0 30 30" fill="none" xmlns="http://www.w3.org/2000/svg">
<g clip-path="url(#clip0_1_608)">
<g filter="url(#filter0_b_1_608)">
<path d="M7.8 14.7C7.8 11.2175 7.79156 7.72659 7.8 4.24408C7.8 2.8106 8.52517 1.765 9.79844 1.35182C10.102 1.25063 10.4309 1.20847 10.7513 1.20847C13.6941 1.20004 16.637 1.20004 19.5714 1.20847C21.2831 1.2169 22.5311 2.45644 22.5311 4.15975C22.5395 11.1922 22.5395 18.2163 22.5311 25.2488C22.5311 26.9521 21.2831 28.2 19.5798 28.2C16.6707 28.2085 13.7616 28.2085 10.8525 28.2C9.0311 28.2 7.81686 27.0027 7.80843 25.1644C7.79156 21.6735 7.8 18.191 7.8 14.7ZM15.1698 3.65382C14.5964 3.65382 14.023 3.65382 13.4412 3.65382C12.9858 3.66225 12.7329 3.87306 12.7244 4.24408C12.716 4.62353 12.9521 4.88492 13.3906 4.88492C14.5711 4.90179 15.7432 4.90179 16.9237 4.88492C17.3453 4.87649 17.632 4.5898 17.6151 4.24408C17.5982 3.88992 17.32 3.65382 16.8899 3.65382C16.3165 3.65382 15.7432 3.65382 15.1698 3.65382ZM15.1698 23.3093C14.4783 23.3093 13.9302 23.8574 13.9387 24.532C13.9471 25.2066 14.5121 25.7547 15.1866 25.7463C15.8443 25.7378 16.3756 25.1982 16.3756 24.532C16.384 23.8321 15.8612 23.3093 15.1698 23.3093Z" fill="#E60000"/>
<path d="M13.4412 3.15373V3.15382H13.4446H13.448H13.4514H13.4548H13.4582H13.4616H13.465H13.4684H13.4718H13.4752H13.4786H13.4821H13.4855H13.4889H13.4923H13.4957H13.4991H13.5025H13.5059H13.5093H13.5127H13.5161H13.5195H13.5229H13.5263H13.5297H13.5331H13.5365H13.5399H13.5433H13.5468H13.5502H13.5536H13.557H13.5604H13.5638H13.5672H13.5706H13.574H13.5774H13.5808H13.5842H13.5876H13.591H13.5944H13.5978H13.6012H13.6046H13.608H13.6114H13.6148H13.6182H13.6216H13.625H13.6284H13.6318H13.6352H13.6386H13.642H13.6454H13.6488H13.6522H13.6556H13.659H13.6624H13.6658H13.6692H13.6726H13.676H13.6793H13.6827H13.6861H13.6895H13.6929H13.6963H13.6997H13.7031H13.7065H13.7099H13.7133H13.7167H13.7201H13.7235H13.7269H13.7303H13.7337H13.7371H13.7405H13.7439H13.7472H13.7506H13.754H13.7574H13.7608H13.7642H13.7676H13.771H13.7744H13.7778H13.7812H13.7846H13.788H13.7913H13.7947H13.7981H13.8015H13.8049H13.8083H13.8117H13.8151H13.8185H13.8219H13.8252H13.8286H13.832H13.8354H13.8388H13.8422H13.8456H13.849H13.8524H13.8558H13.8591H13.8625H13.8659H13.8693H13.8727H13.8761H13.8795H13.8829H13.8862H13.8896H13.893H13.8964H13.8998H13.9032H13.9066H13.9099H13.9133H13.9167H13.9201H13.9235H13.9269H13.9303H13.9336H13.937H13.9404H13.9438H13.9472H13.9506H13.954H13.9573H13.9607H13.9641H13.9675H13.9709H13.9743H13.9776H13.981H13.9844H13.9878H13.9912H13.9946H13.9979H14.0013H14.0047H14.0081H14.0115H14.0148H14.0182H14.0216H14.025H14.0284H14.0318H14.0351H14.0385H14.0419H14.0453H14.0487H14.052H14.0554H14.0588H14.0622H14.0656H14.0689H14.0723H14.0757H14.0791H14.0825H14.0858H14.0892H14.0926H14.096H14.0994H14.1027H14.1061H14.1095H14.1129H14.1162H14.1196H14.123H14.1264H14.1298H14.1331H14.1365H14.1399H14.1433H14.1466H14.15H14.1534H14.1568H14.1602H14.1635H14.1669H14.1703H14.1737H14.177H14.1804H14.1838H14.1872H14.1905H14.1939H14.1973H14.2007H14.204H14.2074H14.2108H14.2142H14.2175H14.2209H14.2243H14.2277H14.231H14.2344H14.2378H14.2412H14.2445H14.2479H14.2513H14.2547H14.258H14.2614H14.2648H14.2682H14.2715H14.2749H14.2783H14.2816H14.285H14.2884H14.2918H14.2951H14.2985H14.3019H14.3053H14.3086H14.312H14.3154H14.3187H14.3221H14.3255H14.3289H14.3322H14.3356H14.339H14.3423H14.3457H14.3491H14.3525H14.3558H14.3592H14.3626H14.3659H14.3693H14.3727H14.376H14.3794H14.3828H14.3862H14.3895H14.3929H14.3963H14.3996H14.403H14.4064H14.4097H14.4131H14.4165H14.4199H14.4232H14.4266H14.43H14.4333H14.4367H14.4401H14.4434H14.4468H14.4502H14.4535H14.4569H14.4603H14.4636H14.467H14.4704H14.4737H14.4771H14.4805H14.4839H14.4872H14.4906H14.494H14.4973H14.5007H14.5041H14.5074H14.5108H14.5142H14.5175H14.5209H14.5243H14.5276H14.531H14.5344H14.5377H14.5411H14.5445H14.5478H14.5512H14.5546H14.5579H14.5613H14.5647H14.568H14.5714H14.5747H14.5781H14.5815H14.5848H14.5882H14.5916H14.5949H14.5983H14.6017H14.605H14.6084H14.6118H14.6151H14.6185H14.6219H14.6252H14.6286H14.632H14.6353H14.6387H14.642H14.6454H14.6488H14.6521H14.6555H14.6589H14.6622H14.6656H14.669H14.6723H14.6757H14.6791H14.6824H14.6858H14.6891H14.6925H14.6959H14.6992H14.7026H14.706H14.7093H14.7127H14.7161H14.7194H14.7228H14.7261H14.7295H14.7329H14.7362H14.7396H14.743H14.7463H14.7497H14.753H14.7564H14.7598H14.7631H14.7665H14.7699H14.7732H14.7766H14.7799H14.7833H14.7867H14.79H14.7934H14.7968H14.8001H14.8035H14.8068H14.8102H14.8136H14.8169H14.8203H14.8236H14.827H14.8304H14.8337H14.8371H14.8405H14.8438H14.8472H14.8505H14.8539H14.8573H14.8606H14.864H14.8673H14.8707H14.8741H14.8774H14.8808H14.8842H14.8875H14.8909H14.8942H14.8976H14.901H14.9043H14.9077H14.911H14.9144H14.9178H14.9211H14.9245H14.9278H14.9312H14.9346H14.9379H14.9413H14.9446H14.948H14.9514H14.9547H14.9581H14.9614H14.9648H14.9682H14.9715H14.9749H14.9783H14.9816H14.985H14.9883H14.9917H14.9951H14.9984H15.0018H15.0051H15.0085H15.0119H15.0152H15.0186H15.0219H15.0253H15.0287H15.032H15.0354H15.0387H15.0421H15.0455H15.0488H15.0522H15.0555H15.0589H15.0623H15.0656H15.069H15.0723H15.0757H15.0791H15.0824H15.0858H15.0891H15.0925H15.0959H15.0992H15.1026H15.1059H15.1093H15.1127H15.116H15.1194H15.1227H15.1261H15.1294H15.1328H15.1362H15.1395H15.1429H15.1462H15.1496H15.153H15.1563H15.1597H15.163H15.1664H15.1698H15.1731H15.1765H15.1798H15.1832H15.1866H15.1899H15.1933H15.1966H15.2H15.2034H15.2067H15.2101H15.2134H15.2168H15.2202H15.2235H15.2269H15.2302H15.2336H15.237H15.2403H15.2437H15.247H15.2504H15.2538H15.2571H15.2605H15.2638H15.2672H15.2706H15.2739H15.2773H15.2806H15.284H15.2874H15.2907H15.2941H15.2974H15.3008H15.3042H15.3075H15.3109H15.3142H15.3176H15.321H15.3243H15.3277H15.331H15.3344H15.3378H15.3411H15.3445H15.3478H15.3512H15.3546H15.3579H15.3613H15.3646H15.368H15.3713H15.3747H15.3781H15.3814H15.3848H15.3881H15.3915H15.3949H15.3982H15.4016H15.4049H15.4083H15.4117H15.415H15.4184H15.4217H15.4251H15.4285H15.4318H15.4352H15.4385H15.4419H15.4453H15.4486H15.452H15.4553H15.4587H15.4621H15.4654H15.4688H15.4721H15.4755H15.4789H15.4822H15.4856H15.4889H15.4923H15.4957H15.499H15.5024H15.5057H15.5091H15.5125H15.5158H15.5192H15.5225H15.5259H15.5293H15.5326H15.536H15.5393H15.5427H15.5461H15.5494H15.5528H15.5561H15.5595H15.5629H15.5662H15.5696H15.5729H15.5763H15.5797H15.583H15.5864H15.5897H15.5931H15.5965H15.5998H15.6032H15.6065H15.6099H15.6132H15.6166H15.62H15.6233H15.6267H15.63H15.6334H15.6368H15.6401H15.6435H15.6468H15.6502H15.6536H15.6569H15.6603H15.6636H15.667H15.6704H15.6737H15.6771H15.6804H15.6838H15.6872H15.6905H15.6939H15.6972H15.7006H15.704H15.7073H15.7107H15.714H15.7174H15.7208H15.7241H15.7275H15.7308H15.7342H15.7376H15.7409H15.7443H15.7476H15.751H15.7544H15.7577H15.7611H15.7644H15.7678H15.7712H15.7745H15.7779H15.7812H15.7846H15.788H15.7913H15.7947H15.798H15.8014H15.8048H15.8081H15.8115H15.8148H15.8182H15.8216H15.8249H15.8283H15.8316H15.835H15.8384H15.8417H15.8451H15.8484H15.8518H15.8551H15.8585H15.8619H15.8652H15.8686H15.8719H15.8753H15.8787H15.882H15.8854H15.8887H15.8921H15.8955H15.8988H15.9022H15.9055H15.9089H15.9123H15.9156H15.919H15.9223H15.9257H15.9291H15.9324H15.9358H15.9391H15.9425H15.9459H15.9492H15.9526H15.9559H15.9593H15.9627H15.966H15.9694H15.9727H15.9761H15.9795H15.9828H15.9862H15.9895H15.9929H15.9963H15.9996H16.003H16.0063H16.0097H16.0131H16.0164H16.0198H16.0231H16.0265H16.0299H16.0332H16.0366H16.0399H16.0433H16.0467H16.05H16.0534H16.0567H16.0601H16.0635H16.0668H16.0702H16.0735H16.0769H16.0802H16.0836H16.087H16.0903H16.0937H16.097H16.1004H16.1038H16.1071H16.1105H16.1138H16.1172H16.1206H16.1239H16.1273H16.1306H16.134H16.1374H16.1407H16.1441H16.1474H16.1508H16.1542H16.1575H16.1609H16.1642H16.1676H16.171H16.1743H16.1777H16.181H16.1844H16.1878H16.1911H16.1945H16.1978H16.2012H16.2046H16.2079H16.2113H16.2146H16.218H16.2214H16.2247H16.2281H16.2314H16.2348H16.2382H16.2415H16.2449H16.2482H16.2516H16.255H16.2583H16.2617H16.265H16.2684H16.2718H16.2751H16.2785H16.2818H16.2852H16.2886H16.2919H16.2953H16.2986H16.302H16.3054H16.3087H16.3121H16.3154H16.3188H16.3221H16.3255H16.3289H16.3322H16.3356H16.3389H16.3423H16.3457H16.349H16.3524H16.3557H16.3591H16.3625H16.3658H16.3692H16.3725H16.3759H16.3793H16.3826H16.386H16.3893H16.3927H16.3961H16.3994H16.4028H16.4061H16.4095H16.4129H16.4162H16.4196H16.4229H16.4263H16.4297H16.433H16.4364H16.4397H16.4431H16.4465H16.4498H16.4532H16.4565H16.4599H16.4633H16.4666H16.47H16.4733H16.4767H16.4801H16.4834H16.4868H16.4901H16.4935H16.4969H16.5002H16.5036H16.5069H16.5103H16.5137H16.517H16.5204H16.5237H16.5271H16.5305H16.5338H16.5372H16.5405H16.5439H16.5472H16.5506H16.554H16.5573H16.5607H16.564H16.5674H16.5708H16.5741H16.5775H16.5808H16.5842H16.5876H16.5909H16.5943H16.5976H16.601H16.6044H16.6077H16.6111H16.6144H16.6178H16.6212H16.6245H16.6279H16.6312H16.6346H16.638H16.6413H16.6447H16.648H16.6514H16.6548H16.6581H16.6615H16.6648H16.6682H16.6716H16.6749H16.6783H16.6816H16.685H16.6884H16.6917H16.6951H16.6984H16.7018H16.7052H16.7085H16.7119H16.7152H16.7186H16.722H16.7253H16.7287H16.732H16.7354H16.7388H16.7421H16.7455H16.7488H16.7522H16.7556H16.7589H16.7623H16.7656H16.769H16.7724H16.7757H16.7791H16.7824H16.7858H16.7891H16.7925H16.7959H16.7992H16.8026H16.8059H16.8093H16.8127H16.816H16.8194H16.8227H16.8261H16.8295H16.8328H16.8362H16.8395H16.8429H16.8463H16.8496H16.853H16.8563H16.8597H16.8631H16.8664H16.8698H16.8731H16.8765H16.8799H16.8832H16.8866H16.8899C17.1942 3.15382 17.4917 3.23778 17.7253 3.43017C17.9652 3.62771 18.0998 3.90957 18.1145 4.22029M13.4412 3.15373L17.6151 4.24408M13.4412 3.15373L13.4319 3.15391C13.1364 3.15938 12.8345 3.23107 12.5968 3.4275C12.3454 3.63514 12.2315 3.9275 12.2245 4.23271L12.2245 4.23297C12.2179 4.52983 12.3082 4.83215 12.5363 5.06035C12.7631 5.28713 13.0695 5.38413 13.3867 5.38492M13.4412 3.15373L12.7244 4.24408C12.716 4.62353 12.9521 4.88492 13.3906 4.88492M18.1145 4.22029L17.6151 4.24408M18.1145 4.22029C18.1145 4.2201 18.1145 4.21991 18.1145 4.21971L17.6151 4.24408M18.1145 4.22029C18.1475 4.90358 17.5769 5.37196 16.9337 5.38482L16.9308 5.38488C15.7466 5.40179 14.5708 5.40181 13.3867 5.38492M17.6151 4.24408C17.632 4.5898 17.3453 4.87649 16.9237 4.88492C15.7432 4.90179 14.5711 4.90179 13.3906 4.88492M13.3867 5.38492C13.388 5.38492 13.3893 5.38492 13.3906 5.38492V4.88492M13.3867 5.38492C13.3856 5.3849 13.3845 5.38489 13.3834 5.38487L13.3906 4.88492M8.3 4.24529V4.24408C8.3 3.00768 8.90365 2.16785 9.95276 1.82741L9.95277 1.82742L9.95655 1.82616C10.1987 1.74544 10.4724 1.70847 10.7513 1.70847L10.7527 1.70847C13.6944 1.70004 16.6361 1.70004 19.5694 1.70847C21.0099 1.7158 22.0311 2.73598 22.0311 4.15975V4.16035C22.0395 11.1924 22.0395 18.2161 22.0311 25.2482V25.2488C22.0311 26.6759 21.007 27.7 19.5798 27.7L19.5784 27.7C16.6702 27.7085 13.7621 27.7085 10.8539 27.7H10.8525C10.0536 27.7 9.42822 27.4396 9.0031 27.017C8.57814 26.5945 8.31213 25.9692 8.30842 25.1621L8.30842 25.162C8.29578 22.5456 8.29736 19.9343 8.29894 17.3191C8.29947 16.4466 8.3 15.5737 8.3 14.7C8.3 13.5386 8.29906 12.3767 8.29812 11.2148C8.29625 8.89079 8.29438 6.5665 8.3 4.24529ZM15.1929 26.2462L15.193 26.2462C16.1264 26.2343 16.874 25.4704 16.8756 24.5351C16.8858 23.5571 16.1376 22.8093 15.1698 22.8093C14.208 22.8093 13.4267 23.577 13.4387 24.5383C13.4506 25.4905 14.2437 26.2581 15.1929 26.2462Z" stroke="#E60000"/>
</g>
</g>
<defs>
<filter id="filter0_b_1_608" x="-4.20375" y="-10.7979" width="38.7412" height="51.0042" filterUnits="userSpaceOnUse" color-interpolation-filters="sRGB">
<feFlood flood-opacity="0" result="BackgroundImageFix"/>
<feGaussianBlur in="BackgroundImageFix" stdDeviation="6"/>
<feComposite in2="SourceAlpha" operator="in" result="effect1_backgroundBlur_1_608"/>
<feBlend mode="normal" in="SourceGraphic" in2="effect1_backgroundBlur_1_608" result="shape"/>
</filter>
<clipPath id="clip0_1_608">
<rect width="14.7311" height="27" fill="white" transform="translate(7.8 1.20001)"/>
</clipPath>
</defs>
</svg>
